<svg width="240" height="240" viewBox="0 0 240 240" fill="none" xmlns="http://www.w3.org/2000/svg">
<circle cx="120" cy="120" r="120" fill="#B9C1E1"/>
<mask id="mask0_1240_55703" style="mask-type:alpha" maskUnits="userSpaceOnUse" x="0" y="0" width="240" height="240">
<circle cx="120" cy="120" r="120" fill="#B9C1E1"/>
</mask>
<g mask="url(#mask0_1240_55703)">
<path d="M178.336 63.9758C169.329 63.9758 162.027 56.6743 162.027 47.6674C162.027 38.6604 169.329 31.3589 178.336 31.3589C187.343 31.3589 194.644 38.6604 194.644 47.6674C194.644 56.6743 187.343 63.9758 178.336 63.9758Z" fill="black"/>
<path d="M129.787 33.8625C127.455 37.3297 121.781 37.1375 120.524 33.5779C120.114 32.3846 119.829 31.1521 119.674 29.8999C118.598 21.9453 132.075 13.1664 140.936 13.3697C140.936 13.3697 138.692 14.7226 137.073 15.8278C135.454 16.933 134.345 17.6057 133.916 18.5483C131.307 24.3036 132.9 29.1976 129.81 33.8292L129.787 33.8625Z" fill="black"/>
<path fill-rule="evenodd" clip-rule="evenodd" d="M125.672 23.4419C128.569 16.9362 136.273 14.9402 138.121 14.5114L155.254 12.1235C159.739 24.711 164.225 37.2886 168.712 49.8563C168.379 50.1893 167.975 50.5797 167.504 51.0097L171.881 63.7943L156.77 68.968L153.305 58.8474C151.871 59.2139 150.352 59.4891 148.752 59.6406C145.174 59.9807 140.062 60.4649 135.426 57.5078C129.712 53.8558 128.333 47.2947 126.115 36.5752C124.777 30.1619 124.141 26.8832 125.672 23.4419Z" fill="#FE9A94"/>
<path fill-rule="evenodd" clip-rule="evenodd" d="M150.926 20.6363C148.601 15.4096 139.434 14.467 139.434 14.467C139.434 14.467 133.801 14.4559 151.207 10.5008C164.859 7.39882 169.809 19.3237 173.943 29.2829C175.08 32.0221 176.156 34.6126 177.333 36.7008C180.098 41.6059 183.946 45.2395 187.066 47.631C187.52 47.9774 187.869 48.4418 188.077 48.9735C188.284 49.5053 188.342 50.0838 188.242 50.6459C188.143 51.208 187.891 51.7319 187.514 52.1605C187.137 52.5891 186.65 52.9057 186.105 53.0758L170.059 58.3986L165.49 48.289C162.311 46.4942 158.206 37.86 155.047 30.4871L153.54 34.8419L153.54 34.843C153.092 36.134 152.33 37.2935 151.322 38.2174C150.315 39.1412 149.094 39.8004 147.769 40.1359C146.444 40.4713 145.057 40.4725 143.731 40.1394C142.406 39.8062 141.184 39.1492 140.175 38.2273L140.175 38.227L136.893 35.2335L135.914 39.4683L135.914 39.4684C135.607 40.8003 134.973 42.035 134.07 43.0616C133.168 44.0882 132.024 44.8744 130.742 45.3498C129.461 45.8252 128.081 45.9748 126.727 45.7852C125.373 45.5955 124.088 45.0726 122.986 44.2634L122.986 44.2632L115.634 38.8591C115.349 38.6496 115.208 38.2957 115.272 37.9478C115.336 37.5998 115.593 37.3188 115.934 37.2241L136.341 31.5539C136.451 31.5233 136.564 31.5138 136.674 31.5241C137.13 31.3797 137.688 31.2026 138.322 31.0005C140.115 30.4287 142.515 29.6567 144.948 28.8549C147.383 28.0526 149.844 27.2226 151.759 26.5344C152.276 26.3489 152.75 26.1747 153.171 26.0149C152.962 25.5092 152.762 25.0219 152.57 24.5567C151.896 22.9183 151.335 21.5551 150.926 20.6363ZM153.972 27.9435C153.941 27.8697 153.91 27.7961 153.88 27.7228C153.43 27.8939 152.927 28.0789 152.384 28.2738C150.445 28.9703 147.966 29.8064 145.527 30.6102C143.086 31.4145 140.679 32.1885 138.883 32.7613C138.338 32.9353 137.848 33.0908 137.431 33.223L141.421 36.8621L141.422 36.8628C142.204 37.5784 143.153 38.0884 144.182 38.3469C145.21 38.6055 146.287 38.6046 147.315 38.3442C148.344 38.0839 149.291 37.5722 150.073 36.8553C150.855 36.1384 151.446 35.2387 151.794 34.2368L151.794 34.2365L153.972 27.9435ZM135.326 33.8044L135.284 33.7659L118.26 38.4959L124.08 42.7738L124.08 42.774C124.935 43.4019 125.933 43.8077 126.984 43.9548C128.034 44.102 129.105 43.9859 130.1 43.617C131.094 43.248 131.982 42.6378 132.683 41.8411C133.383 41.0444 133.875 40.0862 134.114 39.0524L134.114 39.0524L135.326 33.8044ZM141.886 34.6731C141.886 35.5142 142.568 36.1961 143.409 36.1961C144.25 36.1961 144.932 35.5142 144.932 34.6731C144.932 33.8321 144.25 33.1502 143.409 33.1502C142.568 33.1502 141.886 33.8321 141.886 34.6731ZM126.369 39.4484C126.369 40.2895 127.051 40.9713 127.892 40.9713C128.733 40.9713 129.415 40.2895 129.415 39.4484C129.415 38.6073 128.733 37.9255 127.892 37.9255C127.051 37.9255 126.369 38.6073 126.369 39.4484Z" fill="black"/>
<path d="M161.802 28.9091L166.729 43.2991L169.583 40.9667C170.813 39.9871 171.756 38.6934 172.311 37.2223C173.42 34.1875 172.363 31.4633 169.491 29.8295C168.037 29.0376 166.389 28.6712 164.737 28.7723L161.802 28.9091Z" fill="#FE9A94"/>
<path d="M141.328 169.191L114.526 280.389C112.824 287.908 113.292 295.755 115.875 303.019L146.925 397.365H193.048L152.484 291.39L175.808 211.773L187.977 212.28L185.437 397.365H227.528L224.017 160.074L141.328 169.191Z" fill="#903600"/>
<path fill-rule="evenodd" clip-rule="evenodd" d="M44.7881 91.6188L58.0138 108.903L58.0113 108.923L114.233 149.379L95.2444 164.723L45.3431 130.886C39.2042 129.183 33.7941 127.403 28.3841 125.623C22.9794 123.845 17.5747 122.067 11.4435 120.366C6.77129 120.477 4.53129 115.453 7.04483 112.145C8.25372 110.557 8.97398 109.112 9.69459 107.667C10.4128 106.226 11.1314 104.785 12.3344 103.2C13.726 101.368 15.6355 99.9964 17.8155 99.2623C19.9956 98.5281 22.3459 98.4653 24.562 99.082L44.5681 104.649L38.5929 96.169C38.0122 95.3447 37.7785 94.3252 37.9424 93.3302C38.1063 92.3352 38.6545 91.4444 39.469 90.8499C40.2803 90.2578 41.2912 90.0067 42.2852 90.1504C43.2793 90.2941 44.1777 90.8211 44.7881 91.6188Z" fill="#FE9A94"/>
<path fill-rule="evenodd" clip-rule="evenodd" d="M11.5947 103.196C11.456 103.687 11.7418 104.198 12.2329 104.337L27.8502 108.746C28.3413 108.885 28.8519 108.599 28.9906 108.108C29.1293 107.617 28.8436 107.106 28.3524 106.968L12.7352 102.558C12.244 102.419 11.7334 102.705 11.5947 103.196ZM7.58381 109.576C7.44509 110.068 7.73079 110.578 8.22194 110.717L23.8355 115.127C24.3266 115.265 24.8373 114.98 24.976 114.489C25.1147 113.997 24.829 113.487 24.3378 113.348L8.72428 108.938C8.23313 108.8 7.72252 109.085 7.58381 109.576ZM46.1113 108.627C46.3864 108.197 46.9579 108.071 47.3877 108.347C47.8176 108.622 47.9431 109.193 47.668 109.623L42.2417 118.103C41.9666 118.532 41.3951 118.658 40.9652 118.383C40.5354 118.108 40.4099 117.536 40.685 117.106L46.1113 108.627Z" fill="black"/>
<path d="M71.7839 150.413C92.6278 163.72 80.0453 155.159 100.886 168.452C103.887 170.365 107.508 171.056 111.003 170.382C114.498 169.708 117.603 167.721 119.678 164.829L159.174 109.753C155.261 102.148 150.667 94.9129 145.449 88.1364C141.849 83.4567 132.094 86.9129 128.634 83.3569C116.739 109.561 112.507 119.848 102.442 136.045C86.2774 125.488 103.551 136.785 87.3753 126.22L71.7839 150.413Z" fill="#6DB6DF"/>
<path d="M188.079 58.9346L222.995 157.536L139.901 180.513L130.453 113.286L127.248 90.4759C127.39 86.484 128.784 82.6378 131.231 79.4811C133.679 76.3244 137.057 74.0169 140.888 72.8848L188.079 58.9346Z" fill="black"/>
<path fill-rule="evenodd" clip-rule="evenodd" d="M172.16 63.6404L201.535 165.823C203.617 225.535 205.69 285.253 207.752 344.976L251 343.276L238.802 250.933L226.604 158.593L185.707 59.1899L172.16 63.6404ZM144.777 179.075L130.464 113.279L127.259 90.4684C127.402 86.4765 128.795 82.6303 131.243 79.4736C133.691 76.3169 137.068 74.0093 140.899 72.8772L151.578 69.7205C150.923 87.7385 149.554 105.967 148.185 124.194L148.185 124.194C146.805 142.56 145.426 160.925 144.777 179.075ZM152.483 291.388L165.268 324.789H186.432L187.976 212.278L175.807 211.771L152.483 291.388Z" fill="#6DB6DF"/>
<path d="M168.824 166.405L129.514 187.105C127.026 188.415 123.948 187.46 122.638 184.973L91.33 125.516C90.0202 123.028 90.9748 119.95 93.4622 118.64L132.772 97.9408C135.26 96.631 138.338 97.5856 139.647 100.073L170.956 159.53C172.266 162.018 171.311 165.096 168.824 166.405Z" fill="#202B6D"/>
<path d="M213.816 161.576C199.947 166.067 150.904 184.468 142.032 187.188C139.608 187.928 136.993 187.711 134.724 186.581C132.455 185.451 130.705 183.495 129.834 181.115L128.178 176.657C127.599 175.063 127.585 173.318 128.14 171.715C128.694 170.112 129.783 168.748 131.224 167.853L140.446 162.145L146.065 156.845C149.37 153.731 153.722 151.968 158.263 151.903L170.239 151.744C172.801 151.193 210.597 137.734 213.158 137.184C213.378 145.306 213.597 153.437 213.816 161.576Z" fill="#FE9A94"/>
<path d="M207.354 164.718L227.207 157.034C233.251 155.019 237.557 148.229 235.709 142.141L213.937 69.9096C210.178 59.6522 195.965 55.4309 185.708 59.1901C193.441 85.6969 201.077 109.014 208.807 135.51L203.092 137.602C204.164 144.95 206.282 157.37 207.354 164.718Z" fill="#6DB6DF"/>
<path fill-rule="evenodd" clip-rule="evenodd" d="M157.626 156.116C157.482 155.626 156.967 155.347 156.478 155.491L140.92 160.09C140.431 160.234 140.151 160.748 140.296 161.238C140.44 161.727 140.954 162.007 141.444 161.862L157.002 157.264C157.491 157.119 157.771 156.605 157.626 156.116ZM144.315 172.738C144.164 172.25 143.646 171.977 143.159 172.128L127.634 176.934C127.146 177.085 126.873 177.602 127.024 178.09C127.175 178.577 127.693 178.85 128.18 178.699L143.705 173.894C144.193 173.743 144.466 173.225 144.315 172.738ZM147.114 178.455C147.577 178.242 148.126 178.445 148.339 178.909C148.552 179.373 148.349 179.922 147.885 180.135L134.209 186.418C133.745 186.632 133.196 186.428 132.983 185.965C132.77 185.501 132.973 184.952 133.437 184.739L147.114 178.455Z" fill="black"/>
<path fill-rule="evenodd" clip-rule="evenodd" d="M177.449 62.6468C177.304 62.1574 177.583 61.6434 178.073 61.4986C178.562 61.3539 179.076 61.6333 179.221 62.1227L188.307 92.8471C188.355 93.0087 188.356 93.173 188.319 93.3258L189.211 93.0622C192.343 92.1361 195.633 93.9247 196.559 97.057L197.611 100.616C198.537 103.748 196.749 107.038 193.616 107.964L190.058 109.016C186.925 109.942 183.635 108.154 182.709 105.022L181.657 101.463C180.731 98.3304 182.52 95.0404 185.652 94.1143L186.784 93.7795C186.67 93.6714 186.582 93.5328 186.534 93.3712L177.449 62.6468ZM150.221 70.6967C150.077 70.2073 150.356 69.6932 150.846 69.5486C151.335 69.4039 151.849 69.6834 151.994 70.1728L157.626 89.2287L160.525 88.3709L160.526 88.3707C162.501 87.7879 164.627 88.0133 166.437 88.9975C168.246 89.9816 169.591 91.644 170.175 93.6191L170.175 93.6196L177.198 117.41L177.198 117.41C177.781 119.385 177.556 121.511 176.572 123.321C175.587 125.13 173.925 126.475 171.95 127.059C171.461 127.204 170.947 126.924 170.802 126.435C170.657 125.946 170.936 125.432 171.426 125.287C172.931 124.842 174.198 123.817 174.948 122.438C175.698 121.059 175.87 119.438 175.426 117.933L168.403 94.1434C167.958 92.638 166.933 91.3711 165.554 90.6211C164.175 89.8711 162.555 89.6992 161.049 90.1432L161.049 90.1432L161.049 90.1434L157.572 91.172C157.487 91.2361 157.388 91.2864 157.28 91.3185C157.172 91.3505 157.062 91.3617 156.955 91.3545L154.241 92.1577L154.241 92.1577C152.735 92.603 151.468 93.6278 150.718 95.0068C149.968 96.3858 149.796 98.0062 150.241 99.5118L157.264 123.301C157.709 124.806 158.734 126.073 160.113 126.823C161.492 127.574 163.112 127.745 164.618 127.301C165.107 127.157 165.621 127.436 165.765 127.926C165.91 128.415 165.63 128.929 165.141 129.074C163.165 129.657 161.039 129.431 159.23 128.447C157.42 127.463 156.076 125.801 155.491 123.825L155.491 123.825L148.468 100.035L148.468 100.035C147.885 98.0592 148.111 95.9331 149.095 94.1237C150.079 92.3143 151.741 90.9697 153.716 90.3855L153.716 90.3855L155.854 89.7531L150.221 70.6967ZM189.534 107.244C187.38 107.881 185.118 106.651 184.482 104.498L183.429 100.939C182.793 98.7852 184.022 96.5234 186.176 95.8867L189.735 94.8345C191.888 94.1979 194.15 95.4275 194.787 97.581L195.839 101.14C196.476 103.293 195.246 105.555 193.092 106.192L189.534 107.244Z" fill="white"/>
<path fill-rule="evenodd" clip-rule="evenodd" d="M101 60C101 71.0457 92.0457 80 81 80C69.9543 80 61 71.0457 61 60C61 48.9543 69.9543 40 81 40C92.0457 40 101 48.9543 101 60ZM88.8452 52.1548C89.4961 52.8057 89.4961 53.861 88.8452 54.5119L83.357 60L88.8452 65.4882C89.4961 66.139 89.4961 67.1943 88.8452 67.8452C88.1943 68.4961 87.139 68.4961 86.4882 67.8452L81 62.357L75.5119 67.8452C74.861 68.4961 73.8057 68.4961 73.1548 67.8452C72.504 67.1943 72.504 66.139 73.1548 65.4882L78.643 60L73.1548 54.5119C72.504 53.861 72.504 52.8057 73.1548 52.1548C73.8057 51.504 74.861 51.504 75.5119 52.1548L81 57.643L86.4882 52.1548C87.139 51.504 88.1943 51.504 88.8452 52.1548Z" fill="white"/>
</g>
</svg>
